<?xml version="1.0" standalone="no"?>
<!DOCTYPE svg PUBLIC "-//W3C//DTD SVG 20010904//EN"
 "http://www.w3.org/TR/2001/REC-SVG-20010904/DTD/svg10.dtd">
<svg version="1.0" xmlns="http://www.w3.org/2000/svg"
 width="260.000000pt" height="260.000000pt" viewBox="0 0 260.000000 260.000000"
 preserveAspectRatio="xMidYMid meet">
<metadata>
Created by potrace 1.14, written by Peter Selinger 2001-2017
</metadata>
<g transform="translate(0.000000,260.000000) scale(0.100000,-0.100000)"
fill="#000000" stroke="none">
<path d="M385 2567 c-59 -28 -116 -112 -115 -169 2 -61 29 -99 164 -229 l136
-131 0 -664 0 -664 -78 0 c-61 0 -87 -5 -122 -22 -82 -42 -122 -119 -106 -203
6 -30 40 -68 207 -233 110 -108 217 -205 237 -214 33 -16 82 -18 489 -18 295
0 461 4 480 11 61 23 113 95 113 156 0 67 -22 107 -100 188 l-79 80 73 0 c63
0 77 3 108 27 68 52 68 50 68 499 l0 402 113 -110 c99 -97 119 -112 160 -121
93 -19 185 27 216 111 16 42 14 835 -2 863 -21 37 -405 424 -430 433 -13 5
-356 12 -763 16 -627 5 -744 4 -769 -8z m1551 -99 l34 -38 0 -405 c0 -360 -2
-409 -16 -431 -35 -52 -118 -70 -174 -37 -56 33 -60 53 -63 343 -3 297 -8 324
-69 357 -30 16 -68 18 -405 21 l-373 3 0 -362 0 -361 139 4 c122 3 142 5 161
23 40 36 50 76 50 209 0 119 1 126 26 155 54 65 164 64 204 -2 19 -31 20 -54
20 -530 0 -446 -2 -500 -16 -523 -46 -69 -148 -71 -209 -4 -18 19 -21 40 -25
174 -8 232 -30 256 -232 256 l-118 0 0 -340 0 -340 234 0 c232 0 235 0 262
-23 22 -19 28 -34 32 -80 4 -54 3 -58 -31 -92 l-35 -35 -460 0 -459 0 -34 23
c-64 43 -69 126 -9 180 29 26 34 27 145 27 l115 0 0 820 0 820 -100 0 c-144 0
-190 29 -190 118 0 37 6 50 34 78 l34 34 747 -2 747 -3 34 -37z m-286 -603 c0
-14 -1 -25 -3 -25 -2 0 -14 11 -27 25 l-23 25 26 0 c22 0 27 -5 27 -25z m-345
-1125 l39 -40 -42 0 -42 0 0 40 c0 22 1 40 3 40 2 0 21 -18 42 -40z"/>
</g>
</svg>
